<mxfile host="app.diagrams.net" modified="2024-05-25T17:49:17.730Z" agent="Mozilla/5.0 (X11; Linux x86_64) AppleWebKit/537.36 (KHTML, like Gecko) Chrome/125.0.0.0 Safari/537.36" etag="s7558MNm9oC_UXLI9LLi" version="24.4.6" type="github">
  <diagram name="Página-1" id="uyZmQ1yy8iMNmOULgRxI">
    <mxGraphModel dx="880" dy="481" grid="1" gridSize="10" guides="1" tooltips="1" connect="1" arrows="1" fold="1" page="1" pageScale="1" pageWidth="827" pageHeight="1169" background="#ffffff" math="0" shadow="0">
      <root>
        <mxCell id="0" />
        <mxCell id="1" parent="0" />
        <mxCell id="929GYFtMndTy6gYTnbS9-8" style="edgeStyle=orthogonalEdgeStyle;rounded=0;orthogonalLoop=1;jettySize=auto;html=1;entryX=0;entryY=0.5;entryDx=0;entryDy=0;" edge="1" parent="1" source="929GYFtMndTy6gYTnbS9-2" target="929GYFtMndTy6gYTnbS9-3">
          <mxGeometry relative="1" as="geometry" />
        </mxCell>
        <mxCell id="929GYFtMndTy6gYTnbS9-9" style="edgeStyle=orthogonalEdgeStyle;rounded=0;orthogonalLoop=1;jettySize=auto;html=1;entryX=0;entryY=0.5;entryDx=0;entryDy=0;" edge="1" parent="1" source="929GYFtMndTy6gYTnbS9-2" target="929GYFtMndTy6gYTnbS9-4">
          <mxGeometry relative="1" as="geometry" />
        </mxCell>
        <mxCell id="929GYFtMndTy6gYTnbS9-2" value="Pessoa" style="ellipse;whiteSpace=wrap;html=1;aspect=fixed;" vertex="1" parent="1">
          <mxGeometry x="100" y="260" width="80" height="80" as="geometry" />
        </mxCell>
        <mxCell id="929GYFtMndTy6gYTnbS9-10" style="edgeStyle=orthogonalEdgeStyle;rounded=0;orthogonalLoop=1;jettySize=auto;html=1;entryX=0;entryY=0.5;entryDx=0;entryDy=0;" edge="1" parent="1" source="929GYFtMndTy6gYTnbS9-3" target="929GYFtMndTy6gYTnbS9-5">
          <mxGeometry relative="1" as="geometry" />
        </mxCell>
        <mxCell id="929GYFtMndTy6gYTnbS9-11" style="edgeStyle=orthogonalEdgeStyle;rounded=0;orthogonalLoop=1;jettySize=auto;html=1;entryX=0;entryY=0.5;entryDx=0;entryDy=0;" edge="1" parent="1" source="929GYFtMndTy6gYTnbS9-3" target="929GYFtMndTy6gYTnbS9-6">
          <mxGeometry relative="1" as="geometry" />
        </mxCell>
        <mxCell id="929GYFtMndTy6gYTnbS9-12" style="edgeStyle=orthogonalEdgeStyle;rounded=0;orthogonalLoop=1;jettySize=auto;html=1;entryX=0;entryY=0.5;entryDx=0;entryDy=0;" edge="1" parent="1" source="929GYFtMndTy6gYTnbS9-3" target="929GYFtMndTy6gYTnbS9-7">
          <mxGeometry relative="1" as="geometry" />
        </mxCell>
        <mxCell id="929GYFtMndTy6gYTnbS9-3" value="Funcionarios" style="rounded=0;whiteSpace=wrap;html=1;" vertex="1" parent="1">
          <mxGeometry x="250" y="200" width="120" height="60" as="geometry" />
        </mxCell>
        <mxCell id="929GYFtMndTy6gYTnbS9-4" value="Patrão" style="rounded=0;whiteSpace=wrap;html=1;" vertex="1" parent="1">
          <mxGeometry x="250" y="390" width="120" height="60" as="geometry" />
        </mxCell>
        <mxCell id="929GYFtMndTy6gYTnbS9-20" style="edgeStyle=orthogonalEdgeStyle;rounded=0;orthogonalLoop=1;jettySize=auto;html=1;entryX=0;entryY=0.5;entryDx=0;entryDy=0;" edge="1" parent="1" source="929GYFtMndTy6gYTnbS9-5" target="929GYFtMndTy6gYTnbS9-13">
          <mxGeometry relative="1" as="geometry" />
        </mxCell>
        <mxCell id="929GYFtMndTy6gYTnbS9-21" style="edgeStyle=orthogonalEdgeStyle;rounded=0;orthogonalLoop=1;jettySize=auto;html=1;entryX=0;entryY=0.5;entryDx=0;entryDy=0;" edge="1" parent="1" source="929GYFtMndTy6gYTnbS9-5" target="929GYFtMndTy6gYTnbS9-17">
          <mxGeometry relative="1" as="geometry" />
        </mxCell>
        <mxCell id="929GYFtMndTy6gYTnbS9-22" style="edgeStyle=orthogonalEdgeStyle;rounded=0;orthogonalLoop=1;jettySize=auto;html=1;entryX=0;entryY=0.5;entryDx=0;entryDy=0;" edge="1" parent="1" source="929GYFtMndTy6gYTnbS9-5" target="929GYFtMndTy6gYTnbS9-18">
          <mxGeometry relative="1" as="geometry" />
        </mxCell>
        <mxCell id="929GYFtMndTy6gYTnbS9-5" value="Engenheiros" style="rounded=1;whiteSpace=wrap;html=1;" vertex="1" parent="1">
          <mxGeometry x="430" y="140" width="120" height="60" as="geometry" />
        </mxCell>
        <mxCell id="929GYFtMndTy6gYTnbS9-6" value="Lider" style="rounded=1;whiteSpace=wrap;html=1;" vertex="1" parent="1">
          <mxGeometry x="430" y="230" width="120" height="60" as="geometry" />
        </mxCell>
        <mxCell id="929GYFtMndTy6gYTnbS9-26" style="edgeStyle=orthogonalEdgeStyle;rounded=0;orthogonalLoop=1;jettySize=auto;html=1;entryX=0;entryY=0.5;entryDx=0;entryDy=0;" edge="1" parent="1" source="929GYFtMndTy6gYTnbS9-7" target="929GYFtMndTy6gYTnbS9-23">
          <mxGeometry relative="1" as="geometry" />
        </mxCell>
        <mxCell id="929GYFtMndTy6gYTnbS9-27" style="edgeStyle=orthogonalEdgeStyle;rounded=0;orthogonalLoop=1;jettySize=auto;html=1;" edge="1" parent="1" source="929GYFtMndTy6gYTnbS9-7" target="929GYFtMndTy6gYTnbS9-24">
          <mxGeometry relative="1" as="geometry" />
        </mxCell>
        <mxCell id="929GYFtMndTy6gYTnbS9-28" value="" style="edgeStyle=orthogonalEdgeStyle;rounded=0;orthogonalLoop=1;jettySize=auto;html=1;" edge="1" parent="1" source="929GYFtMndTy6gYTnbS9-7" target="929GYFtMndTy6gYTnbS9-25">
          <mxGeometry relative="1" as="geometry" />
        </mxCell>
        <mxCell id="929GYFtMndTy6gYTnbS9-7" value="Desingn" style="rounded=1;whiteSpace=wrap;html=1;" vertex="1" parent="1">
          <mxGeometry x="430" y="330" width="120" height="60" as="geometry" />
        </mxCell>
        <mxCell id="929GYFtMndTy6gYTnbS9-13" value="Junior" style="rounded=1;whiteSpace=wrap;html=1;" vertex="1" parent="1">
          <mxGeometry x="590" y="90" width="80" height="40" as="geometry" />
        </mxCell>
        <mxCell id="929GYFtMndTy6gYTnbS9-17" value="Medio" style="rounded=1;whiteSpace=wrap;html=1;" vertex="1" parent="1">
          <mxGeometry x="590" y="140" width="80" height="40" as="geometry" />
        </mxCell>
        <mxCell id="929GYFtMndTy6gYTnbS9-18" value="Senior" style="rounded=1;whiteSpace=wrap;html=1;" vertex="1" parent="1">
          <mxGeometry x="590" y="190" width="80" height="40" as="geometry" />
        </mxCell>
        <mxCell id="929GYFtMndTy6gYTnbS9-23" value="Junior" style="rounded=1;whiteSpace=wrap;html=1;" vertex="1" parent="1">
          <mxGeometry x="600" y="290" width="80" height="40" as="geometry" />
        </mxCell>
        <mxCell id="929GYFtMndTy6gYTnbS9-24" value="Medio" style="rounded=1;whiteSpace=wrap;html=1;" vertex="1" parent="1">
          <mxGeometry x="600" y="340" width="80" height="40" as="geometry" />
        </mxCell>
        <mxCell id="929GYFtMndTy6gYTnbS9-25" value="Senior" style="rounded=1;whiteSpace=wrap;html=1;" vertex="1" parent="1">
          <mxGeometry x="600" y="390" width="80" height="40" as="geometry" />
        </mxCell>
        <mxCell id="929GYFtMndTy6gYTnbS9-29" value="" style="endArrow=classic;html=1;rounded=0;" edge="1" parent="1">
          <mxGeometry width="50" height="50" relative="1" as="geometry">
            <mxPoint x="120" y="493" as="sourcePoint" />
            <mxPoint x="680" y="490" as="targetPoint" />
          </mxGeometry>
        </mxCell>
        <mxCell id="929GYFtMndTy6gYTnbS9-30" value="&lt;font style=&quot;font-size: 23px;&quot;&gt;&lt;i&gt;Abstração&lt;/i&gt;&lt;/font&gt;" style="text;html=1;align=center;verticalAlign=middle;whiteSpace=wrap;rounded=0;" vertex="1" parent="1">
          <mxGeometry x="370" y="500" width="60" height="30" as="geometry" />
        </mxCell>
        <mxCell id="929GYFtMndTy6gYTnbS9-31" value="&lt;font style=&quot;font-size: 33px;&quot;&gt;-&lt;/font&gt;" style="text;html=1;align=center;verticalAlign=middle;whiteSpace=wrap;rounded=0;" vertex="1" parent="1">
          <mxGeometry x="660" y="480" width="60" height="30" as="geometry" />
        </mxCell>
        <mxCell id="929GYFtMndTy6gYTnbS9-32" value="&lt;span style=&quot;font-size: 33px;&quot;&gt;+&lt;/span&gt;" style="text;html=1;align=center;verticalAlign=middle;whiteSpace=wrap;rounded=0;" vertex="1" parent="1">
          <mxGeometry x="70" y="480" width="60" height="30" as="geometry" />
        </mxCell>
        <mxCell id="929GYFtMndTy6gYTnbS9-33" value="Maior abstração" style="text;html=1;align=center;verticalAlign=middle;whiteSpace=wrap;rounded=0;" vertex="1" parent="1">
          <mxGeometry x="70" y="510" width="60" height="30" as="geometry" />
        </mxCell>
        <mxCell id="929GYFtMndTy6gYTnbS9-34" value="Menor abstração" style="text;html=1;align=center;verticalAlign=middle;whiteSpace=wrap;rounded=0;" vertex="1" parent="1">
          <mxGeometry x="660" y="500" width="60" height="30" as="geometry" />
        </mxCell>
        <mxCell id="929GYFtMndTy6gYTnbS9-35" value="" style="ellipse;whiteSpace=wrap;html=1;aspect=fixed;" vertex="1" parent="1">
          <mxGeometry x="120" y="490" width="5" height="5" as="geometry" />
        </mxCell>
        <mxCell id="929GYFtMndTy6gYTnbS9-37" value="&lt;font style=&quot;font-size: 15px;&quot;&gt;Exemplo java abstração e herança&lt;/font&gt;" style="text;html=1;align=center;verticalAlign=middle;whiteSpace=wrap;rounded=0;" vertex="1" parent="1">
          <mxGeometry x="214.4" y="27.5" width="330" height="30" as="geometry" />
        </mxCell>
        <mxCell id="929GYFtMndTy6gYTnbS9-39" value="" style="dashed=0;outlineConnect=0;html=1;align=center;labelPosition=center;verticalLabelPosition=bottom;verticalAlign=top;shape=mxgraph.weblogos.java" vertex="1" parent="1">
          <mxGeometry x="510" y="10" width="34.4" height="65" as="geometry" />
        </mxCell>
      </root>
    </mxGraphModel>
  </diagram>
</mxfile>
